<?xml version="1.0" standalone="no"?>
<!DOCTYPE svg PUBLIC "-//W3C//DTD SVG 20010904//EN"
 "http://www.w3.org/TR/2001/REC-SVG-20010904/DTD/svg10.dtd">
<svg version="1.0" xmlns="http://www.w3.org/2000/svg"
 width="769.000000pt" height="769.000000pt" viewBox="0 0 769.000000 769.000000"
 preserveAspectRatio="xMidYMid meet">
<metadata>
Created by potrace 1.11, written by Peter Selinger 2001-2013
</metadata>
<g transform="translate(0.000000,769.000000) scale(0.100000,-0.100000)"
fill="#000000" stroke="none">
<path d="M3605 7654 c-22 -2 -88 -8 -147 -14 -721 -70 -1434 -365 -2010 -832
-148 -120 -452 -424 -561 -563 -256 -323 -445 -649 -586 -1008 -189 -483 -270
-952 -258 -1487 14 -635 173 -1222 476 -1765 889 -1588 2740 -2325 4476 -1783
485 151 955 414 1345 754 129 111 347 336 453 465 823 1007 1075 2355 675
3608 -41 131 -116 316 -187 466 -203 427 -525 861 -870 1170 -611 549 -1300
864 -2121 970 -118 16 -588 29 -685 19z m527 -1462 l3 -337 75 -7 c97 -10 201
-32 320 -70 317 -101 573 -320 685 -586 131 -314 102 -728 -71 -1000 -89 -139
-269 -314 -514 -498 -265 -200 -388 -311 -439 -395 -39 -67 -61 -180 -61 -321
l0 -128 -398 0 -397 0 4 1090 c2 600 1 1090 -2 1090 -20 0 -244 -87 -356 -139
-73 -34 -135 -60 -136 -59 -6 7 -325 648 -325 654 0 11 326 162 435 202 97 35
278 89 358 106 l27 6 0 364 c0 199 2 365 4 367 2 2 180 3 395 1 l391 -2 2
-338z m-214 -3878 c173 -35 287 -133 343 -296 19 -53 23 -84 23 -198 0 -114
-4 -144 -22 -194 -60 -163 -171 -262 -334 -301 -74 -17 -230 -19 -314 -4 -178
32 -312 158 -359 335 -32 120 -15 337 34 432 63 123 183 206 334 231 85 14
213 12 295 -5z"/>
<path d="M4130 4650 l0 -442 39 31 c61 49 146 145 180 204 87 153 101 328 36
457 -38 75 -140 156 -232 184 l-23 7 0 -441z"/>
</g>
</svg>
